<svg width="1575" height="31" viewBox="0 0 1575 31" fill="none" xmlns="http://www.w3.org/2000/svg">
<path fill-rule="evenodd" clip-rule="evenodd" d="M1575 0H240V30H247.772C248.972 30.3409 250.314 30.5114 251.798 30.5114C253.306 30.5114 254.662 30.3409 255.864 30H1575V0ZM255.864 30C256.443 29.8359 256.986 29.6323 257.494 29.3892C259.066 28.6411 260.259 27.6326 261.073 26.3636C261.897 25.0947 262.309 23.6742 262.309 22.1023C262.309 20.7386 262.03 19.5881 261.471 18.6506C260.912 17.7131 260.202 16.946 259.34 16.3494C258.488 15.7434 257.593 15.2652 256.656 14.9148C255.727 14.5644 254.885 14.2898 254.127 14.0909L251.173 13.2955C250.633 13.1534 250.041 12.9688 249.397 12.7415C248.753 12.5047 248.138 12.2064 247.55 11.8466C246.963 11.4773 246.48 11.018 246.102 10.4688C245.732 9.91003 245.548 9.24242 245.548 8.4659C245.548 7.53788 245.813 6.70928 246.343 5.98011C246.883 5.25095 247.631 4.67803 248.587 4.26136C249.553 3.8447 250.68 3.63636 251.968 3.63636C253.729 3.63636 255.216 4.03409 256.428 4.82954C257.64 5.625 258.332 6.74242 258.502 8.18182H261.911C261.864 6.71401 261.409 5.40246 260.548 4.24715C259.695 3.09186 258.54 2.18276 257.082 1.51988C255.623 0.847534 253.957 0.51136 252.082 0.51136C250.226 0.51136 248.545 0.852272 247.039 1.53409C245.543 2.20644 244.35 3.15341 243.459 4.375C242.579 5.58712 242.138 7.00758 242.138 8.63636C242.138 10.5966 242.801 12.1828 244.127 13.3949C245.453 14.607 247.252 15.5398 249.525 16.1932L253.104 17.2159C254.127 17.5 255.079 17.8314 255.959 18.2102C256.84 18.589 257.55 19.0814 258.09 19.6875C258.63 20.2936 258.9 21.0795 258.9 22.0455C258.9 23.1061 258.587 24.0341 257.962 24.8295C257.337 25.6155 256.49 26.2311 255.42 26.6761C254.35 27.1117 253.142 27.3295 251.798 27.3295C250.642 27.3295 249.563 27.1591 248.559 26.8182C247.565 26.4678 246.741 25.9375 246.087 25.2273C245.443 24.5076 245.074 23.5985 244.979 22.5H241.343C241.457 24.0909 241.944 25.4877 242.806 26.6903C243.677 27.893 244.87 28.8305 246.386 29.5028C246.825 29.6964 247.287 29.8622 247.772 30H255.864ZM0.522705 0.909088V30H18.3068V26.875H4.04544V16.9886H17.1704V13.8636H4.04544V4.03409H18.0795V0.909088H0.522705ZM33.6335 13.0114L26.1335 0.909088H21.9858L31.3608 15.4545L21.9858 30H26.1335L33.6335 18.125H33.8608L41.3608 30H45.5085L36.3608 15.4545L45.5085 0.909088H41.3608L33.8608 13.0114H33.6335ZM59.9226 0.909088H50.093V30H53.6158V19.375H59.9794C62.2426 19.375 64.0987 18.9631 65.5476 18.1392C66.9964 17.3059 68.0665 16.1884 68.7578 14.7869C69.4586 13.3854 69.8089 11.8277 69.8089 10.1136C69.8089 8.39962 69.4586 6.84659 68.7578 5.45454C68.057 4.0625 66.9775 2.95928 65.5192 2.14488C64.0703 1.32102 62.2048 0.909088 59.9226 0.909088ZM53.6158 16.25H59.8658C61.4283 16.25 62.683 15.9801 63.63 15.4403C64.5769 14.9006 65.2635 14.1714 65.6896 13.2528C66.1252 12.3248 66.343 11.2784 66.343 10.1136C66.343 8.94886 66.1252 7.9072 65.6896 6.98863C65.2635 6.07008 64.5722 5.35038 63.6158 4.82954C62.6593 4.29924 61.3904 4.03409 59.8089 4.03409H53.6158V16.25ZM93.0405 0.909088H75.4836V30H93.2677V26.875H79.0064V16.9886H92.1314V13.8636H79.0064V4.03409H93.0405V0.909088ZM109.219 0.909088H99.3899V30H102.913V18.6364H109.276C109.528 18.6364 109.775 18.6317 110.017 18.6223L116.151 30H120.242L113.671 18.0043C114.082 17.8642 114.469 17.7009 114.83 17.5142C116.279 16.7566 117.354 15.715 118.055 14.3892C118.755 13.0634 119.106 11.5436 119.106 9.82954C119.106 8.11553 118.755 6.58617 118.055 5.24148C117.354 3.89678 116.274 2.8409 114.816 2.07386C113.358 1.29735 111.492 0.909088 109.219 0.909088ZM102.913 15.4545H109.163C110.716 15.4545 111.966 15.2273 112.913 14.7727C113.869 14.3182 114.56 13.6742 114.986 12.8409C115.422 11.9981 115.64 10.9943 115.64 9.82954C115.64 8.66477 115.422 7.64678 114.986 6.77557C114.551 5.90436 113.855 5.23201 112.898 4.75852C111.942 4.27557 110.678 4.03409 109.106 4.03409H102.913V15.4545ZM124.976 30H128.499V0.909088H124.976V30ZM153.119 0.909088H135.562V30H153.346V26.875H139.084V16.9886H152.209V13.8636H139.084V4.03409H153.119V0.909088ZM179.127 30H182.536V0.909088H179.07V23.8068H178.786L162.877 0.909088H159.468V30H162.991V7.15909H163.275L179.127 30ZM209.472 10H212.994C212.729 8.50378 212.246 7.17329 211.545 6.00852C210.845 4.83428 209.973 3.83996 208.932 3.02557C207.89 2.20171 206.721 1.57671 205.423 1.15057C204.135 0.724434 202.758 0.51136 201.29 0.51136C198.809 0.51136 196.602 1.11742 194.67 2.32954C192.739 3.54166 191.219 5.26515 190.111 7.5C189.003 9.73485 188.449 12.3864 188.449 15.4545C188.449 18.5227 189.003 21.1742 190.111 23.4091C191.219 25.6439 192.739 27.3674 194.67 28.5795C196.602 29.7917 198.809 30.3977 201.29 30.3977C202.758 30.3977 204.135 30.1847 205.423 29.7585C206.721 29.3324 207.89 28.7121 208.932 27.8977C209.973 27.0739 210.845 26.0748 211.545 24.9006C212.246 23.7263 212.729 22.3958 212.994 20.9091H209.472C209.263 21.9129 208.899 22.803 208.378 23.5795C207.866 24.3466 207.241 24.9953 206.503 25.5256C205.774 26.0464 204.964 26.4394 204.074 26.7045C203.184 26.9697 202.256 27.1023 201.29 27.1023C199.528 27.1023 197.933 26.6572 196.503 25.767C195.082 24.8769 193.951 23.5653 193.108 21.8324C192.275 20.0994 191.858 17.9735 191.858 15.4545C191.858 12.9356 192.275 10.8097 193.108 9.07671C193.951 7.34375 195.082 6.0322 196.503 5.14204C197.933 4.25189 199.528 3.80682 201.29 3.80682C202.256 3.80682 203.184 3.93939 204.074 4.20454C204.964 4.4697 205.774 4.86742 206.503 5.39773C207.241 5.91856 207.866 6.5625 208.378 7.32954C208.899 8.09659 209.263 8.98674 209.472 10ZM236.244 0.909088H218.687V30H236.471V26.875H222.209V16.9886H235.334V13.8636H222.209V4.03409H236.244V0.909088Z" fill="black"/>
</svg>
