<svg width="344" height="107" viewBox="0 0 344 107" fill="none" xmlns="http://www.w3.org/2000/svg">
<rect width="344" height="107" fill="#F7F7F7"/>
<path d="M73 17.1875C52.575 17.1875 36.1875 33.6938 36.1875 54C36.1875 74.3063 52.575 90.8125 73 90.8125C93.425 90.8125 109.812 74.1875 109.812 54C109.812 33.8125 93.1875 17.1875 73 17.1875ZM105.656 54C105.656 66.35 98.7687 77.0375 88.7938 82.5L98.2938 58.0375C98.7687 56.7313 102.094 48.6563 103.281 41.7688C104.825 45.6875 105.656 49.8438 105.656 54ZM80.0063 37.9688H75.9688H63.2625C62.55 37.9688 62.075 38.4438 62.075 39.1562C62.075 39.8687 62.55 40.3438 63.2625 40.3438H65.6375L69.7938 51.0312L64.8062 63.8563L55.7812 40.225H58.6313C59.3438 40.225 59.8188 39.75 59.8188 39.0375C59.8188 38.325 59.3438 37.85 58.6313 37.85H53.7625L45.925 37.7312C51.2688 28.35 61.6 22.175 73 22.175C81.3125 22.175 89.0312 25.5 94.7313 30.8438C91.7625 31.3188 89.3875 33.6937 88.675 36.5437C87.9625 39.8687 89.15 42.6 90.4562 45.0938C91.7625 47.825 93.1875 50.3187 92.1187 53.2875L87.725 64.6875L78.3438 40.225H80.125C80.8375 40.225 81.3125 39.75 81.3125 39.0375C81.3125 38.4438 80.4813 37.9688 80.0063 37.9688ZM40.3438 54C40.3438 49.8438 41.175 45.8062 42.7188 42.125L58.75 83.3313C47.7063 78.1063 40.3438 66.9437 40.3438 54ZM73.3563 61.0063L82.8563 85.1125C79.65 86.0625 76.4437 86.6562 73 86.6562C69.7938 86.6562 66.825 86.3 63.975 85.35L73.3563 61.0063Z" fill="black"/>
<path d="M153.045 65L146.682 41.7273H149.545L154.409 60.6818H154.636L159.591 41.7273H162.773L167.727 60.6818H167.955L172.818 41.7273H175.682L169.318 65H166.409L161.273 46.4545H161.091L155.955 65H153.045ZM184.295 65.3636C182.72 65.3636 181.337 64.9886 180.148 64.2386C178.966 63.4886 178.042 62.4394 177.375 61.0909C176.716 59.7424 176.386 58.1667 176.386 56.3636C176.386 54.5455 176.716 52.9583 177.375 51.6023C178.042 50.2462 178.966 49.1932 180.148 48.4432C181.337 47.6932 182.72 47.3182 184.295 47.3182C185.871 47.3182 187.25 47.6932 188.432 48.4432C189.621 49.1932 190.545 50.2462 191.205 51.6023C191.871 52.9583 192.205 54.5455 192.205 56.3636C192.205 58.1667 191.871 59.7424 191.205 61.0909C190.545 62.4394 189.621 63.4886 188.432 64.2386C187.25 64.9886 185.871 65.3636 184.295 65.3636ZM184.295 62.9545C185.492 62.9545 186.477 62.6477 187.25 62.0341C188.023 61.4205 188.595 60.6136 188.966 59.6136C189.337 58.6136 189.523 57.5303 189.523 56.3636C189.523 55.197 189.337 54.1098 188.966 53.1023C188.595 52.0947 188.023 51.2803 187.25 50.6591C186.477 50.0379 185.492 49.7273 184.295 49.7273C183.098 49.7273 182.114 50.0379 181.341 50.6591C180.568 51.2803 179.996 52.0947 179.625 53.1023C179.254 54.1098 179.068 55.197 179.068 56.3636C179.068 57.5303 179.254 58.6136 179.625 59.6136C179.996 60.6136 180.568 61.4205 181.341 62.0341C182.114 62.6477 183.098 62.9545 184.295 62.9545ZM196.298 65V47.5455H198.889V50.1818H199.071C199.389 49.3182 199.965 48.6174 200.798 48.0795C201.632 47.5417 202.571 47.2727 203.616 47.2727C203.813 47.2727 204.06 47.2765 204.355 47.2841C204.651 47.2917 204.874 47.303 205.026 47.3182V50.0455C204.935 50.0227 204.726 49.9886 204.401 49.9432C204.082 49.8902 203.745 49.8636 203.389 49.8636C202.541 49.8636 201.783 50.0417 201.116 50.3977C200.457 50.7462 199.935 51.2311 199.548 51.8523C199.17 52.4659 198.98 53.1667 198.98 53.9545V65H196.298ZM214.264 65.3636C212.81 65.3636 211.526 64.9962 210.412 64.2614C209.298 63.5189 208.427 62.4735 207.798 61.125C207.17 59.7689 206.855 58.1667 206.855 56.3182C206.855 54.4848 207.17 52.8939 207.798 51.5455C208.427 50.197 209.302 49.1553 210.423 48.4205C211.545 47.6856 212.84 47.3182 214.31 47.3182C215.446 47.3182 216.344 47.5076 217.003 47.8864C217.67 48.2576 218.177 48.6818 218.526 49.1591C218.882 49.6288 219.158 50.0152 219.355 50.3182H219.582V41.7273H222.264V65H219.673V62.3182H219.355C219.158 62.6364 218.878 63.0379 218.514 63.5227C218.151 64 217.632 64.428 216.957 64.8068C216.283 65.178 215.385 65.3636 214.264 65.3636ZM214.628 62.9545C215.704 62.9545 216.613 62.6742 217.355 62.1136C218.098 61.5455 218.662 60.7614 219.048 59.7614C219.435 58.7538 219.628 57.5909 219.628 56.2727C219.628 54.9697 219.438 53.8295 219.06 52.8523C218.681 51.8674 218.12 51.1023 217.378 50.5568C216.635 50.0038 215.719 49.7273 214.628 49.7273C213.491 49.7273 212.545 50.0189 211.787 50.6023C211.037 51.178 210.473 51.9621 210.094 52.9545C209.723 53.9394 209.537 55.0455 209.537 56.2727C209.537 57.5152 209.726 58.6439 210.105 59.6591C210.491 60.6667 211.06 61.4697 211.81 62.0682C212.567 62.6591 213.507 62.9545 214.628 62.9545ZM227.548 71.5455V47.5455H230.139V50.3182H230.457C230.654 50.0152 230.927 49.6288 231.276 49.1591C231.632 48.6818 232.139 48.2576 232.798 47.8864C233.465 47.5076 234.366 47.3182 235.503 47.3182C236.973 47.3182 238.268 47.6856 239.389 48.4205C240.51 49.1553 241.385 50.197 242.014 51.5455C242.643 52.8939 242.957 54.4848 242.957 56.3182C242.957 58.1667 242.643 59.7689 242.014 61.125C241.385 62.4735 240.514 63.5189 239.401 64.2614C238.287 64.9962 237.003 65.3636 235.548 65.3636C234.427 65.3636 233.529 65.178 232.855 64.8068C232.181 64.428 231.662 64 231.298 63.5227C230.935 63.0379 230.654 62.6364 230.457 62.3182H230.23V71.5455H227.548ZM230.185 56.2727C230.185 57.5909 230.378 58.7538 230.764 59.7614C231.151 60.7614 231.715 61.5455 232.457 62.1136C233.2 62.6742 234.109 62.9545 235.185 62.9545C236.306 62.9545 237.241 62.6591 237.991 62.0682C238.749 61.4697 239.317 60.6667 239.696 59.6591C240.082 58.6439 240.276 57.5152 240.276 56.2727C240.276 55.0455 240.086 53.9394 239.707 52.9545C239.336 51.9621 238.772 51.178 238.014 50.6023C237.264 50.0189 236.321 49.7273 235.185 49.7273C234.094 49.7273 233.177 50.0038 232.435 50.5568C231.692 51.1023 231.132 51.8674 230.753 52.8523C230.374 53.8295 230.185 54.9697 230.185 56.2727ZM247.048 65V47.5455H249.639V50.1818H249.821C250.139 49.3182 250.715 48.6174 251.548 48.0795C252.382 47.5417 253.321 47.2727 254.366 47.2727C254.563 47.2727 254.81 47.2765 255.105 47.2841C255.401 47.2917 255.624 47.303 255.776 47.3182V50.0455C255.685 50.0227 255.476 49.9886 255.151 49.9432C254.832 49.8902 254.495 49.8636 254.139 49.8636C253.291 49.8636 252.533 50.0417 251.866 50.3977C251.207 50.7462 250.685 51.2311 250.298 51.8523C249.92 52.4659 249.73 53.1667 249.73 53.9545V65H247.048ZM265.741 65.3636C264.06 65.3636 262.609 64.9924 261.389 64.25C260.177 63.5 259.241 62.4545 258.582 61.1136C257.931 59.7652 257.605 58.197 257.605 56.4091C257.605 54.6212 257.931 53.0455 258.582 51.6818C259.241 50.3106 260.158 49.2424 261.332 48.4773C262.514 47.7045 263.893 47.3182 265.469 47.3182C266.378 47.3182 267.276 47.4697 268.162 47.7727C269.048 48.0758 269.855 48.5682 270.582 49.25C271.31 49.9242 271.889 50.8182 272.321 51.9318C272.753 53.0455 272.969 54.4167 272.969 56.0455V57.1818H259.514V54.8636H270.241C270.241 53.8788 270.045 53 269.651 52.2273C269.264 51.4545 268.711 50.8447 267.991 50.3977C267.279 49.9508 266.438 49.7273 265.469 49.7273C264.401 49.7273 263.476 49.9924 262.696 50.5227C261.923 51.0455 261.329 51.7273 260.912 52.5682C260.495 53.4091 260.287 54.3106 260.287 55.2727V56.8182C260.287 58.1364 260.514 59.2538 260.969 60.1705C261.431 61.0795 262.071 61.7727 262.889 62.25C263.707 62.7197 264.658 62.9545 265.741 62.9545C266.446 62.9545 267.082 62.8561 267.651 62.6591C268.226 62.4545 268.723 62.1515 269.139 61.75C269.556 61.3409 269.878 60.8333 270.105 60.2273L272.696 60.9545C272.423 61.8333 271.965 62.6061 271.321 63.2727C270.677 63.9318 269.882 64.447 268.935 64.8182C267.988 65.1818 266.923 65.3636 265.741 65.3636ZM289.412 51.4545L287.003 52.1364C286.851 51.7348 286.628 51.3447 286.332 50.9659C286.045 50.5795 285.651 50.2614 285.151 50.0114C284.651 49.7614 284.01 49.6364 283.23 49.6364C282.162 49.6364 281.272 49.8826 280.56 50.375C279.855 50.8598 279.503 51.4773 279.503 52.2273C279.503 52.8939 279.745 53.4205 280.23 53.8068C280.715 54.1932 281.473 54.5152 282.503 54.7727L285.094 55.4091C286.654 55.7879 287.817 56.3674 288.582 57.1477C289.348 57.9205 289.73 58.9167 289.73 60.1364C289.73 61.1364 289.442 62.0303 288.866 62.8182C288.298 63.6061 287.503 64.2273 286.48 64.6818C285.457 65.1364 284.268 65.3636 282.912 65.3636C281.132 65.3636 279.658 64.9773 278.491 64.2045C277.325 63.4318 276.586 62.303 276.276 60.8182L278.821 60.1818C279.063 61.1212 279.522 61.8258 280.196 62.2955C280.878 62.7652 281.768 63 282.866 63C284.116 63 285.109 62.7348 285.844 62.2045C286.586 61.6667 286.957 61.0227 286.957 60.2727C286.957 59.6667 286.745 59.1591 286.321 58.75C285.897 58.3333 285.245 58.0227 284.366 57.8182L281.457 57.1364C279.859 56.7576 278.685 56.1705 277.935 55.375C277.192 54.572 276.821 53.5682 276.821 52.3636C276.821 51.3788 277.098 50.5076 277.651 49.75C278.211 48.9924 278.973 48.3977 279.935 47.9659C280.904 47.5341 282.003 47.3182 283.23 47.3182C284.957 47.3182 286.313 47.697 287.298 48.4545C288.291 49.2121 288.995 50.2121 289.412 51.4545ZM306.131 51.4545L303.722 52.1364C303.57 51.7348 303.347 51.3447 303.051 50.9659C302.763 50.5795 302.369 50.2614 301.869 50.0114C301.369 49.7614 300.729 49.6364 299.949 49.6364C298.881 49.6364 297.991 49.8826 297.278 50.375C296.574 50.8598 296.222 51.4773 296.222 52.2273C296.222 52.8939 296.464 53.4205 296.949 53.8068C297.434 54.1932 298.191 54.5152 299.222 54.7727L301.812 55.4091C303.373 55.7879 304.536 56.3674 305.301 57.1477C306.066 57.9205 306.449 58.9167 306.449 60.1364C306.449 61.1364 306.161 62.0303 305.585 62.8182C305.017 63.6061 304.222 64.2273 303.199 64.6818C302.176 65.1364 300.987 65.3636 299.631 65.3636C297.85 65.3636 296.377 64.9773 295.21 64.2045C294.044 63.4318 293.305 62.303 292.994 60.8182L295.54 60.1818C295.782 61.1212 296.241 61.8258 296.915 62.2955C297.597 62.7652 298.487 63 299.585 63C300.835 63 301.828 62.7348 302.562 62.2045C303.305 61.6667 303.676 61.0227 303.676 60.2727C303.676 59.6667 303.464 59.1591 303.04 58.75C302.616 58.3333 301.964 58.0227 301.085 57.8182L298.176 57.1364C296.578 56.7576 295.403 56.1705 294.653 55.375C293.911 54.572 293.54 53.5682 293.54 52.3636C293.54 51.3788 293.816 50.5076 294.369 49.75C294.93 48.9924 295.691 48.3977 296.653 47.9659C297.623 47.5341 298.722 47.3182 299.949 47.3182C301.676 47.3182 303.032 47.697 304.017 48.4545C305.009 49.2121 305.714 50.2121 306.131 51.4545Z" fill="black"/>
</svg>
