<svg width="315" height="107" viewBox="0 0 315 107" fill="none" xmlns="http://www.w3.org/2000/svg">
<rect width="315" height="107" fill="#F7F7F7"/>
<g clip-path="url(#clip0_8_89)">
<path d="M70 21C51.7758 21 37 35.7758 37 54C37 72.2243 51.7758 87 70 87C88.2243 87 103 72.2243 103 54C103 35.7758 88.2243 21 70 21ZM56.1455 42.12C58.219 42.12 59.8222 43.6297 60.0092 45.42C60.199 47.0233 59.539 48.4368 57.7488 49.2865C56.8055 49.7568 56.4287 49.7595 56.239 49.4762C56.1455 49.2865 56.239 49.0995 56.4288 48.9097C58.1255 47.4963 58.1255 46.3632 57.9357 44.7627C57.8422 43.7232 57.0888 43.0632 56.3325 43.0632C53.0325 43.0632 48.319 50.4168 48.979 55.793C49.2622 57.8665 50.4887 60.3195 53.1287 60.3195C53.9757 60.3195 54.9163 60.0362 55.7687 59.6595C57.1437 58.9335 57.966 58.367 58.7855 57.4595C58.5847 55.0257 60.7215 51.833 63.8757 51.833C65.292 51.833 66.4222 52.3967 66.5157 53.4362C66.7027 54.8498 65.479 55.0368 65.1022 55.0368C64.7255 55.0368 64.0627 54.9432 64.0627 54.5692C63.9692 54.1898 64.9125 54.3768 64.819 53.5298C64.7227 52.9633 64.159 52.7763 63.5925 52.7763C61.6125 52.7763 60.4823 55.5098 60.7627 57.2065C60.859 57.9627 61.2358 58.7163 61.992 58.7163C62.5557 58.7163 63.4055 57.8638 63.6887 56.64C63.8757 55.793 64.632 55.2265 65.292 55.2265C65.5725 55.2265 65.7595 55.32 65.8558 55.6968V56.0763C65.7623 56.453 65.479 57.5833 65.5752 57.8665C65.5752 58.0563 65.6687 58.3368 66.0427 58.3368C66.2957 58.3368 67.2418 57.8418 68.1795 57.0745C68.5013 55.452 68.8752 53.505 68.8752 53.3428C68.9687 52.6827 69.252 52.0228 70.572 52.0228C70.8553 52.0228 71.0423 52.1162 71.1357 52.493V52.8725L70.7617 54.5692C71.9855 52.966 73.7785 51.8358 74.9087 51.8358C75.3817 51.8358 75.7585 52.1163 75.7585 52.5893C75.7585 52.8725 75.7585 53.3428 75.5687 53.8158C75.192 54.8525 74.719 56.4557 74.4357 57.8692C74.4357 58.246 74.532 58.6227 75.005 58.6227C75.4753 58.6227 76.8888 58.0563 78.019 56.5493L78.0382 56.5382C78.0327 56.3512 78.019 56.1698 78.019 55.9827C78.019 54.8525 78.1152 53.9093 78.305 53.2493C78.492 52.4958 79.4352 51.8358 80.0018 51.8358C80.285 51.8358 80.5655 52.0255 80.5655 52.306C80.5655 52.4023 80.5655 52.5893 80.472 52.6828C80.0952 53.9092 79.812 55.0395 79.812 56.1725C79.812 56.8325 79.9055 57.773 80.0925 58.3395C80.0925 58.433 80.1888 58.5293 80.285 58.5293C80.472 58.5293 81.792 57.3055 82.7325 55.7023C81.8855 55.1357 81.4125 54.1925 81.4125 53.0623C81.4125 51.0823 82.639 50.0455 83.772 50.0455C84.7152 50.0455 85.4688 50.7055 85.4688 52.0255C85.4688 52.8725 85.1855 53.813 84.7152 54.6655H84.9957C85.2949 54.6752 85.5927 54.6214 85.8695 54.5077C86.1463 54.3939 86.3959 54.2228 86.6018 54.0055C86.6883 53.8627 86.817 53.7502 86.9702 53.6838C87.8915 52.515 89.2527 51.6488 90.8477 51.6488C92.1677 51.6488 93.3888 52.2125 93.485 53.2493C93.672 54.6655 92.4455 54.9487 92.0687 54.9487L92.0633 54.9433C91.6838 54.9433 91.0265 54.847 91.0265 54.4702C91.0265 54.0935 91.8763 54.2832 91.78 53.4362C91.6865 52.8698 91.12 52.68 90.5535 52.68C88.667 52.68 87.446 55.1302 87.7265 57.1102C87.82 57.8665 88.1968 58.7135 88.9503 58.7135C89.5168 58.7135 90.3665 57.8665 90.7432 56.64C90.9302 55.8865 91.6865 55.2265 92.3465 55.2265C92.6297 55.2265 92.814 55.32 92.9102 55.6968C92.9102 55.8865 92.9103 56.2632 92.5335 57.4897C92.066 58.3368 92.0632 58.8097 92.1567 59.1865C92.2502 59.94 92.627 60.5065 93.0065 60.7897C93.1 60.8833 93.1935 61.0703 93.1935 61.0703C93.1935 61.26 93.1 61.4497 92.8168 61.4497C92.7233 61.4497 92.6297 61.4497 92.5335 61.3535C91.12 60.7897 90.5535 59.8465 90.3638 58.9033C89.8 59.5633 89.14 59.94 88.3837 59.94C87.16 59.94 85.9363 58.8097 85.7438 57.3935C85.6897 56.7907 85.7599 56.1833 85.95 55.6087C85.3917 55.9663 84.7895 56.167 84.2368 56.167H83.7692C82.54 57.96 81.22 59.1865 80.2768 59.7502C79.9564 59.9208 79.6024 60.0184 79.24 60.0362C79.053 60.0362 78.7697 59.94 78.6763 59.7502C78.415 59.3322 78.2472 58.6722 78.1455 57.916C76.8228 59.3652 74.9967 60.1297 74.1497 60.1297C73.2065 60.1297 72.6427 59.5633 72.5493 58.6172V57.5833C72.8298 55.5098 73.586 54.2832 73.586 53.9065C73.5834 53.8567 73.5627 53.8097 73.5277 53.7742C73.4927 53.7387 73.446 53.7173 73.3962 53.714C72.7362 53.714 70.5693 55.98 70.1898 57.4897L69.9065 58.7135C69.7195 59.5632 68.8697 60.1297 68.306 60.1297C68.0227 60.1297 67.833 60.0335 67.7395 59.6567V59.28L67.866 58.6393C66.6698 59.4918 65.4735 60.0362 64.9097 60.0362C64.0627 60.0362 63.5898 59.5633 63.4963 58.9033C62.9298 59.6567 62.2725 60.0362 61.4227 60.0362C60.4547 60.0362 59.5088 59.3763 59.0522 58.4055C58.3813 59.1618 57.614 59.9263 56.7092 60.5065C55.3892 61.3563 53.8822 62.0163 52.0892 62.0163C50.4887 62.0163 49.0725 61.1665 48.319 60.413C47.186 59.3763 46.5288 57.773 46.4325 56.2632C45.8688 51.6432 48.6957 45.7032 53.0325 43.0632C54.072 42.4995 55.1087 42.12 56.1455 42.12ZM83.013 51.1702C82.727 51.1702 82.54 51.6432 82.54 52.1135C82.54 52.867 82.9167 53.7168 83.3897 54.1898C83.5741 53.6753 83.669 53.133 83.6702 52.5865C83.6703 51.6432 83.2962 51.1702 83.013 51.1702Z" fill="black"/>
</g>
<path d="M132 64H124.818V40.7273H132.318C134.576 40.7273 136.508 41.1932 138.114 42.125C139.72 43.0492 140.951 44.3788 141.807 46.1136C142.663 47.8409 143.091 49.9091 143.091 52.3182C143.091 54.7424 142.659 56.8295 141.795 58.5795C140.932 60.322 139.674 61.6629 138.023 62.6023C136.371 63.5341 134.364 64 132 64ZM127.636 61.5H131.818C133.742 61.5 135.337 61.1288 136.602 60.3864C137.867 59.6439 138.811 58.5871 139.432 57.2159C140.053 55.8447 140.364 54.2121 140.364 52.3182C140.364 50.4394 140.057 48.822 139.443 47.4659C138.83 46.1023 137.913 45.0568 136.693 44.3295C135.473 43.5947 133.955 43.2273 132.136 43.2273H127.636V61.5ZM154.773 64.3636C153.091 64.3636 151.64 63.9924 150.42 63.25C149.208 62.5 148.273 61.4545 147.614 60.1136C146.962 58.7652 146.636 57.197 146.636 55.4091C146.636 53.6212 146.962 52.0455 147.614 50.6818C148.273 49.3106 149.189 48.2424 150.364 47.4773C151.545 46.7045 152.924 46.3182 154.5 46.3182C155.409 46.3182 156.307 46.4697 157.193 46.7727C158.08 47.0758 158.886 47.5682 159.614 48.25C160.341 48.9242 160.92 49.8182 161.352 50.9318C161.784 52.0455 162 53.4167 162 55.0455V56.1818H148.545V53.8636H159.273C159.273 52.8788 159.076 52 158.682 51.2273C158.295 50.4545 157.742 49.8447 157.023 49.3977C156.311 48.9508 155.47 48.7273 154.5 48.7273C153.432 48.7273 152.508 48.9924 151.727 49.5227C150.955 50.0455 150.36 50.7273 149.943 51.5682C149.527 52.4091 149.318 53.3106 149.318 54.2727V55.8182C149.318 57.1364 149.545 58.2538 150 59.1705C150.462 60.0795 151.102 60.7727 151.92 61.25C152.739 61.7197 153.689 61.9545 154.773 61.9545C155.477 61.9545 156.114 61.8561 156.682 61.6591C157.258 61.4545 157.754 61.1515 158.17 60.75C158.587 60.3409 158.909 59.8333 159.136 59.2273L161.727 59.9545C161.455 60.8333 160.996 61.6061 160.352 62.2727C159.708 62.9318 158.913 63.447 157.966 63.8182C157.019 64.1818 155.955 64.3636 154.773 64.3636ZM178.443 50.4545L176.034 51.1364C175.883 50.7348 175.659 50.3447 175.364 49.9659C175.076 49.5795 174.682 49.2614 174.182 49.0114C173.682 48.7614 173.042 48.6364 172.261 48.6364C171.193 48.6364 170.303 48.8826 169.591 49.375C168.886 49.8598 168.534 50.4773 168.534 51.2273C168.534 51.8939 168.777 52.4205 169.261 52.8068C169.746 53.1932 170.504 53.5152 171.534 53.7727L174.125 54.4091C175.686 54.7879 176.848 55.3674 177.614 56.1477C178.379 56.9205 178.761 57.9167 178.761 59.1364C178.761 60.1364 178.473 61.0303 177.898 61.8182C177.33 62.6061 176.534 63.2273 175.511 63.6818C174.489 64.1364 173.299 64.3636 171.943 64.3636C170.163 64.3636 168.689 63.9773 167.523 63.2045C166.356 62.4318 165.617 61.303 165.307 59.8182L167.852 59.1818C168.095 60.1212 168.553 60.8258 169.227 61.2955C169.909 61.7652 170.799 62 171.898 62C173.148 62 174.14 61.7348 174.875 61.2045C175.617 60.6667 175.989 60.0227 175.989 59.2727C175.989 58.6667 175.777 58.1591 175.352 57.75C174.928 57.3333 174.277 57.0227 173.398 56.8182L170.489 56.1364C168.89 55.7576 167.716 55.1705 166.966 54.375C166.223 53.572 165.852 52.5682 165.852 51.3636C165.852 50.3788 166.129 49.5076 166.682 48.75C167.242 47.9924 168.004 47.3977 168.966 46.9659C169.936 46.5341 171.034 46.3182 172.261 46.3182C173.989 46.3182 175.345 46.697 176.33 47.4545C177.322 48.2121 178.027 49.2121 178.443 50.4545ZM182.798 64V46.5455H185.48V64H182.798ZM184.162 43.6364C183.639 43.6364 183.188 43.4583 182.81 43.1023C182.438 42.7462 182.253 42.3182 182.253 41.8182C182.253 41.3182 182.438 40.8902 182.81 40.5341C183.188 40.178 183.639 40 184.162 40C184.685 40 185.132 40.178 185.503 40.5341C185.882 40.8902 186.071 41.3182 186.071 41.8182C186.071 42.3182 185.882 42.7462 185.503 43.1023C185.132 43.4583 184.685 43.6364 184.162 43.6364ZM197.438 70.9091C196.142 70.9091 195.028 70.7424 194.097 70.4091C193.165 70.0833 192.388 69.6515 191.767 69.1136C191.153 68.5833 190.665 68.0152 190.301 67.4091L192.438 65.9091C192.68 66.2273 192.987 66.5909 193.358 67C193.729 67.4167 194.237 67.7765 194.881 68.0795C195.532 68.3902 196.384 68.5455 197.438 68.5455C198.847 68.5455 200.009 68.2045 200.926 67.5227C201.843 66.8409 202.301 65.7727 202.301 64.3182V60.7727H202.074C201.877 61.0909 201.597 61.4848 201.233 61.9545C200.877 62.4167 200.362 62.8295 199.688 63.1932C199.021 63.5492 198.119 63.7273 196.983 63.7273C195.574 63.7273 194.309 63.3939 193.188 62.7273C192.074 62.0606 191.191 61.0909 190.54 59.8182C189.896 58.5455 189.574 57 189.574 55.1818C189.574 53.3939 189.888 51.8371 190.517 50.5114C191.146 49.178 192.021 48.1477 193.142 47.4205C194.263 46.6856 195.559 46.3182 197.028 46.3182C198.165 46.3182 199.066 46.5076 199.733 46.8864C200.407 47.2576 200.922 47.6818 201.278 48.1591C201.642 48.6288 201.922 49.0152 202.119 49.3182H202.392V46.5455H204.983V64.5C204.983 66 204.642 67.2197 203.96 68.1591C203.286 69.1061 202.377 69.7992 201.233 70.2386C200.097 70.6856 198.831 70.9091 197.438 70.9091ZM197.347 61.3182C198.422 61.3182 199.331 61.072 200.074 60.5795C200.816 60.0871 201.381 59.3788 201.767 58.4545C202.153 57.5303 202.347 56.4242 202.347 55.1364C202.347 53.8788 202.157 52.7689 201.778 51.8068C201.4 50.8447 200.839 50.0909 200.097 49.5455C199.354 49 198.438 48.7273 197.347 48.7273C196.21 48.7273 195.263 49.0152 194.506 49.5909C193.756 50.1667 193.191 50.9394 192.812 51.9091C192.441 52.8788 192.256 53.9545 192.256 55.1364C192.256 56.3485 192.445 57.4205 192.824 58.3523C193.21 59.2765 193.778 60.0038 194.528 60.5341C195.286 61.0568 196.225 61.3182 197.347 61.3182ZM212.574 53.5V64H209.892V46.5455H212.483V49.2727H212.71C213.119 48.3864 213.741 47.6742 214.574 47.1364C215.407 46.5909 216.483 46.3182 217.801 46.3182C218.983 46.3182 220.017 46.5606 220.903 47.0455C221.79 47.5227 222.479 48.25 222.972 49.2273C223.464 50.197 223.71 51.4242 223.71 52.9091V64H221.028V53.0909C221.028 51.7197 220.672 50.6515 219.96 49.8864C219.248 49.1136 218.271 48.7273 217.028 48.7273C216.172 48.7273 215.407 48.9129 214.733 49.2841C214.066 49.6553 213.54 50.197 213.153 50.9091C212.767 51.6212 212.574 52.4848 212.574 53.5ZM228.611 64V46.5455H231.293V64H228.611ZM229.974 43.6364C229.452 43.6364 229.001 43.4583 228.622 43.1023C228.251 42.7462 228.065 42.3182 228.065 41.8182C228.065 41.3182 228.251 40.8902 228.622 40.5341C229.001 40.178 229.452 40 229.974 40C230.497 40 230.944 40.178 231.315 40.5341C231.694 40.8902 231.884 41.3182 231.884 41.8182C231.884 42.3182 231.694 42.7462 231.315 43.1023C230.944 43.4583 230.497 43.6364 229.974 43.6364ZM238.886 53.5V64H236.205V46.5455H238.795V49.2727H239.023C239.432 48.3864 240.053 47.6742 240.886 47.1364C241.72 46.5909 242.795 46.3182 244.114 46.3182C245.295 46.3182 246.33 46.5606 247.216 47.0455C248.102 47.5227 248.792 48.25 249.284 49.2273C249.777 50.197 250.023 51.4242 250.023 52.9091V64H247.341V53.0909C247.341 51.7197 246.985 50.6515 246.273 49.8864C245.561 49.1136 244.583 48.7273 243.341 48.7273C242.485 48.7273 241.72 48.9129 241.045 49.2841C240.379 49.6553 239.852 50.197 239.466 50.9091C239.08 51.6212 238.886 52.4848 238.886 53.5ZM261.969 70.9091C260.673 70.9091 259.56 70.7424 258.628 70.4091C257.696 70.0833 256.92 69.6515 256.298 69.1136C255.685 68.5833 255.196 68.0152 254.832 67.4091L256.969 65.9091C257.211 66.2273 257.518 66.5909 257.889 67C258.26 67.4167 258.768 67.7765 259.412 68.0795C260.063 68.3902 260.916 68.5455 261.969 68.5455C263.378 68.5455 264.541 68.2045 265.457 67.5227C266.374 66.8409 266.832 65.7727 266.832 64.3182V60.7727H266.605C266.408 61.0909 266.128 61.4848 265.764 61.9545C265.408 62.4167 264.893 62.8295 264.219 63.1932C263.552 63.5492 262.651 63.7273 261.514 63.7273C260.105 63.7273 258.84 63.3939 257.719 62.7273C256.605 62.0606 255.723 61.0909 255.071 59.8182C254.427 58.5455 254.105 57 254.105 55.1818C254.105 53.3939 254.42 51.8371 255.048 50.5114C255.677 49.178 256.552 48.1477 257.673 47.4205C258.795 46.6856 260.09 46.3182 261.56 46.3182C262.696 46.3182 263.598 46.5076 264.264 46.8864C264.938 47.2576 265.454 47.6818 265.81 48.1591C266.173 48.6288 266.454 49.0152 266.651 49.3182H266.923V46.5455H269.514V64.5C269.514 66 269.173 67.2197 268.491 68.1591C267.817 69.1061 266.908 69.7992 265.764 70.2386C264.628 70.6856 263.363 70.9091 261.969 70.9091ZM261.878 61.3182C262.954 61.3182 263.863 61.072 264.605 60.5795C265.348 60.0871 265.912 59.3788 266.298 58.4545C266.685 57.5303 266.878 56.4242 266.878 55.1364C266.878 53.8788 266.688 52.7689 266.31 51.8068C265.931 50.8447 265.37 50.0909 264.628 49.5455C263.885 49 262.969 48.7273 261.878 48.7273C260.741 48.7273 259.795 49.0152 259.037 49.5909C258.287 50.1667 257.723 50.9394 257.344 51.9091C256.973 52.8788 256.787 53.9545 256.787 55.1364C256.787 56.3485 256.976 57.4205 257.355 58.3523C257.741 59.2765 258.31 60.0038 259.06 60.5341C259.817 61.0568 260.757 61.3182 261.878 61.3182Z" fill="black"/>
<defs>
<clipPath id="clip0_8_89">
<rect width="66" height="66" fill="white" transform="translate(37 21)"/>
</clipPath>
</defs>
</svg>
