<svg width="1566" height="126" viewBox="0 0 1566 126" fill="none" xmlns="http://www.w3.org/2000/svg">
<path fill-rule="evenodd" clip-rule="evenodd" d="M0.505005 125H2.806L14.665 27.119L47.056 125H58.207L90.244 25.88L102.457 125H117.148L101.749 1.09996H95.908L58.915 115.619L21.745 1.09996H15.904L0.505005 125ZM136.077 124.115C137.257 125.177 138.614 125.708 140.148 125.708C141.682 125.708 142.98 125.177 144.042 124.115C145.222 122.935 145.812 121.578 145.812 120.044C145.812 118.51 145.222 117.212 144.042 116.15C142.98 114.97 141.623 114.38 139.971 114.38C138.437 114.38 137.139 114.911 136.077 115.973C135.015 117.035 134.484 118.392 134.484 120.044C134.484 121.578 135.015 122.935 136.077 124.115ZM157.911 125H172.602V59.864H230.127V125H244.818V1.09996H230.127V58.094H172.602V1.09996H157.911V125ZM260.185 124.115C261.365 125.177 262.722 125.708 264.256 125.708C265.79 125.708 267.088 125.177 268.15 124.115C269.33 122.935 269.92 121.578 269.92 120.044C269.92 118.51 269.33 117.212 268.15 116.15C267.088 114.97 265.731 114.38 264.079 114.38C262.545 114.38 261.247 114.911 260.185 115.973C259.123 117.035 258.592 118.392 258.592 120.044C258.592 121.578 259.123 122.935 260.185 124.115ZM374.736 1.09996C364.234 1.09996 352.139 1.57197 338.451 2.51597V125H353.142V66.413H375.975L410.667 125H427.128L391.728 65.351C401.522 63.227 408.425 58.92 412.437 52.43C416.449 45.94 418.455 38.565 418.455 30.305C418.455 10.835 403.882 1.09996 374.736 1.09996ZM353.142 4.10897C360.694 3.28296 367.892 2.86996 374.736 2.86996C384.53 2.86996 391.905 5.28896 396.861 10.127C401.817 14.847 404.295 21.691 404.295 30.659C404.295 52.607 395.976 63.935 379.338 64.643H353.142V4.10897ZM437.674 125H439.798L456.613 86.06H508.297L522.103 125H537.148L492.544 0.214966L490.597 1.09996L437.674 125ZM457.321 84.29L485.11 20.216L507.766 84.29H457.321ZM589.73 2.33897C599.288 2.33897 609.436 4.40397 620.174 8.53396L620.882 6.76397C608.846 2.75197 596.987 0.745969 585.305 0.745969C573.741 0.745969 565.068 3.45997 559.286 8.88797C553.504 14.198 550.613 21.16 550.613 29.774C550.613 40.63 555.097 49.008 564.065 54.908C568.077 57.622 572.502 60.1 577.34 62.342C582.178 64.466 586.957 66.531 591.677 68.537C596.515 70.543 600.94 72.726 604.952 75.086C613.92 80.396 618.404 87.771 618.404 97.211C618.404 105.825 614.982 112.374 608.138 116.858C601.412 121.224 593.27 123.407 583.712 123.407C577.222 123.407 570.85 122.463 564.596 120.575C558.46 118.569 553.445 116.032 549.551 112.964L548.666 114.38C558.932 121.578 571.322 125.177 585.836 125.177C593.624 125.177 600.409 124.292 606.191 122.522C612.091 120.634 617.106 117.094 621.236 111.902C625.366 106.71 627.431 100.456 627.431 93.14C627.431 85.706 626.192 79.629 623.714 74.909C621.236 70.071 617.991 66.295 613.979 63.581C609.967 60.867 605.542 58.448 600.704 56.324C595.866 54.2 591.028 52.312 586.19 50.66C581.47 48.89 577.104 47.002 573.092 44.996C564.124 40.276 559.64 33.609 559.64 24.995C559.64 17.915 562.295 12.369 567.605 8.35697C572.915 4.34497 580.29 2.33897 589.73 2.33897ZM642.413 125H657.104V59.864H714.629V125H729.32V1.09996H714.629V58.094H657.104V1.09996H642.413V125ZM820.975 2.86996V1.09996H750.529V125H824.869V123.23H765.22V57.74H816.904V55.97H765.22V2.86996H820.975ZM865.892 1C863.189 1.05873 860.453 1.15106 857.683 1.27696H844V1L865.892 1ZM876.286 1L865.892 1C868.255 0.948645 870.593 0.922967 872.905 0.922967C874.021 0.922967 875.148 0.948645 876.286 1ZM881.734 125C893.55 123.442 903.941 119.312 912.907 112.61C918.925 108.126 923.645 101.695 927.067 93.317C930.607 84.821 932.377 75.263 932.377 64.643C932.377 54.023 931.197 44.996 928.837 37.562C926.477 30.128 923.35 24.169 919.456 19.685C915.68 15.083 911.019 11.366 905.473 8.53396C900.045 5.58397 894.499 3.57797 888.835 2.51597C884.508 1.6875 880.326 1.18218 876.286 1L1566 1V125H881.734ZM852.373 125C858.745 125.472 864.822 125.708 870.604 125.708C874.445 125.708 878.155 125.472 881.734 125L852.373 125ZM844 125L843.523 125V1.27696H844V125ZM867.595 123.938C863.819 123.938 860.692 123.82 858.214 123.584V3.22397C861.872 2.86997 865.648 2.69297 869.542 2.69297C873.436 2.69297 876.858 2.86997 879.808 3.22397C882.758 3.57796 886.711 4.93496 891.667 7.29497C896.623 9.53697 900.812 12.605 904.234 16.499C907.774 20.393 910.901 26.411 913.615 34.553C916.329 42.577 917.686 52.135 917.686 63.227C917.686 78.803 915.149 91.429 910.075 101.105C907.833 105.235 905.119 108.834 901.933 111.902C898.865 114.852 895.915 117.094 893.083 118.628C890.251 120.162 887.183 121.401 883.879 122.345C880.575 123.171 877.979 123.643 876.091 123.761C874.203 123.879 871.371 123.938 867.595 123.938Z" fill="white"/>
</svg>
