<svg width="394" height="107" viewBox="0 0 394 107" fill="none" xmlns="http://www.w3.org/2000/svg">
<rect width="394" height="107" fill="#F7F7F7"/>
<path d="M58.8069 66.1347C54.9628 66.1347 51.2285 64.9265 48.8122 63.6634L47 71.0771C49.2516 72.3401 53.7547 73.4934 58.2578 73.4934C69.186 73.4934 74.3481 67.837 74.3481 61.1373C74.3481 55.5359 71.0531 51.8565 64.0239 49.2755C58.8618 47.2985 56.6652 46.2002 56.6652 43.6741C56.6652 41.5873 58.5323 39.83 62.4314 39.83C66.3304 39.83 69.186 40.9283 70.7786 41.6971L72.8105 34.4482C70.3942 33.4048 67.0992 32.4163 62.5961 32.4163C53.2055 32.4712 47.5492 37.6333 47.5492 44.4429C47.5492 50.2091 51.8875 53.8884 58.4774 56.1949C63.2551 57.8973 65.1771 59.3251 65.1771 61.7963C65.1222 64.4323 62.9256 66.1347 58.8069 66.1347Z" fill="black"/>
<path d="M105.87 65.5305H89.5049V56.085H104.167V48.7263H89.5049V40.4889H105.046V33.0753H80.4438V72.9442H105.87V65.5305Z" fill="black"/>
<path d="M136.293 75.9646C141.895 75.9646 147.002 73.9327 151.011 70.6377L158.918 78.0514C158.918 78.8751 159.193 79.6988 159.852 80.3029L171.494 91.1763C172.098 91.7254 172.812 92 173.581 92C174.405 92 175.174 91.6705 175.778 91.0115C176.931 89.8034 176.876 87.8813 175.613 86.7281L164.026 75.7998C163.367 75.1957 162.543 74.9761 161.719 75.031L153.866 67.7272C157.216 63.7183 159.248 58.5562 159.248 52.9548C159.248 40.3242 148.924 30 136.293 30C123.608 30 113.338 40.3242 113.338 52.9548C113.338 65.6404 123.662 75.9646 136.293 75.9646ZM136.293 36.0407C145.629 36.0407 153.207 43.6191 153.207 52.9548C153.207 62.2905 145.629 69.8689 136.293 69.8689C126.957 69.8689 119.379 62.2905 119.379 52.9548C119.379 43.674 126.957 36.0407 136.293 36.0407Z" fill="black"/>
<path d="M210.818 65V41.7273H224.864V44.2273H213.636V52.0909H224.136V54.5909H213.636V62.5H225.045V65H210.818ZM231.58 47.5455L235.761 54.6818L239.943 47.5455H243.034L237.398 56.2727L243.034 65H239.943L235.761 58.2273L231.58 65H228.489L234.034 56.2727L228.489 47.5455H231.58ZM246.861 71.5455V47.5455H249.452V50.3182H249.77C249.967 50.0152 250.24 49.6288 250.588 49.1591C250.944 48.6818 251.452 48.2576 252.111 47.8864C252.777 47.5076 253.679 47.3182 254.815 47.3182C256.285 47.3182 257.58 47.6856 258.702 48.4205C259.823 49.1553 260.698 50.197 261.327 51.5455C261.955 52.8939 262.27 54.4848 262.27 56.3182C262.27 58.1667 261.955 59.7689 261.327 61.125C260.698 62.4735 259.827 63.5189 258.713 64.2614C257.599 64.9962 256.315 65.3636 254.861 65.3636C253.74 65.3636 252.842 65.178 252.168 64.8068C251.493 64.428 250.974 64 250.611 63.5227C250.247 63.0379 249.967 62.6364 249.77 62.3182H249.543V71.5455H246.861ZM249.497 56.2727C249.497 57.5909 249.69 58.7538 250.077 59.7614C250.463 60.7614 251.027 61.5455 251.77 62.1136C252.512 62.6742 253.421 62.9545 254.497 62.9545C255.618 62.9545 256.554 62.6591 257.304 62.0682C258.062 61.4697 258.63 60.6667 259.009 59.6591C259.395 58.6439 259.588 57.5152 259.588 56.2727C259.588 55.0455 259.399 53.9394 259.02 52.9545C258.649 51.9621 258.084 51.178 257.327 50.6023C256.577 50.0189 255.634 49.7273 254.497 49.7273C253.406 49.7273 252.49 50.0038 251.747 50.5568C251.005 51.1023 250.444 51.8674 250.065 52.8523C249.687 53.8295 249.497 54.9697 249.497 56.2727ZM273.679 65.3636C271.997 65.3636 270.546 64.9924 269.327 64.25C268.115 63.5 267.179 62.4545 266.52 61.1136C265.868 59.7652 265.543 58.197 265.543 56.4091C265.543 54.6212 265.868 53.0455 266.52 51.6818C267.179 50.3106 268.096 49.2424 269.27 48.4773C270.452 47.7045 271.83 47.3182 273.406 47.3182C274.315 47.3182 275.213 47.4697 276.099 47.7727C276.986 48.0758 277.793 48.5682 278.52 49.25C279.247 49.9242 279.827 50.8182 280.259 51.9318C280.69 53.0455 280.906 54.4167 280.906 56.0455V57.1818H267.452V54.8636H278.179C278.179 53.8788 277.982 53 277.588 52.2273C277.202 51.4545 276.649 50.8447 275.929 50.3977C275.217 49.9508 274.376 49.7273 273.406 49.7273C272.338 49.7273 271.414 49.9924 270.634 50.5227C269.861 51.0455 269.266 51.7273 268.849 52.5682C268.433 53.4091 268.224 54.3106 268.224 55.2727V56.8182C268.224 58.1364 268.452 59.2538 268.906 60.1705C269.368 61.0795 270.009 61.7727 270.827 62.25C271.645 62.7197 272.596 62.9545 273.679 62.9545C274.384 62.9545 275.02 62.8561 275.588 62.6591C276.164 62.4545 276.66 62.1515 277.077 61.75C277.493 61.3409 277.815 60.8333 278.043 60.2273L280.634 60.9545C280.361 61.8333 279.902 62.6061 279.259 63.2727C278.615 63.9318 277.819 64.447 276.872 64.8182C275.925 65.1818 274.861 65.3636 273.679 65.3636ZM284.986 65V47.5455H287.577V50.1818H287.759C288.077 49.3182 288.652 48.6174 289.486 48.0795C290.319 47.5417 291.259 47.2727 292.304 47.2727C292.501 47.2727 292.747 47.2765 293.043 47.2841C293.338 47.2917 293.562 47.303 293.713 47.3182V50.0455C293.622 50.0227 293.414 49.9886 293.088 49.9432C292.77 49.8902 292.433 49.8636 292.077 49.8636C291.228 49.8636 290.471 50.0417 289.804 50.3977C289.145 50.7462 288.622 51.2311 288.236 51.8523C287.857 52.4659 287.668 53.1667 287.668 53.9545V65H284.986ZM305.577 47.5455V49.8182H296.531V47.5455H305.577ZM299.168 43.3636H301.849V60C301.849 60.7576 301.959 61.3258 302.179 61.7045C302.406 62.0758 302.694 62.3258 303.043 62.4545C303.399 62.5758 303.774 62.6364 304.168 62.6364C304.463 62.6364 304.705 62.6212 304.895 62.5909C305.084 62.553 305.236 62.5227 305.349 62.5L305.895 64.9091C305.713 64.9773 305.459 65.0455 305.134 65.1136C304.808 65.1894 304.395 65.2273 303.895 65.2273C303.137 65.2273 302.395 65.0644 301.668 64.7386C300.948 64.4129 300.349 63.9167 299.872 63.25C299.402 62.5833 299.168 61.7424 299.168 60.7273V43.3636ZM309.611 65V47.5455H312.293V65H309.611ZM310.974 44.6364C310.452 44.6364 310.001 44.4583 309.622 44.1023C309.251 43.7462 309.065 43.3182 309.065 42.8182C309.065 42.3182 309.251 41.8902 309.622 41.5341C310.001 41.178 310.452 41 310.974 41C311.497 41 311.944 41.178 312.315 41.5341C312.694 41.8902 312.884 42.3182 312.884 42.8182C312.884 43.3182 312.694 43.7462 312.315 44.1023C311.944 44.4583 311.497 44.6364 310.974 44.6364ZM329.568 51.4545L327.159 52.1364C327.008 51.7348 326.784 51.3447 326.489 50.9659C326.201 50.5795 325.807 50.2614 325.307 50.0114C324.807 49.7614 324.167 49.6364 323.386 49.6364C322.318 49.6364 321.428 49.8826 320.716 50.375C320.011 50.8598 319.659 51.4773 319.659 52.2273C319.659 52.8939 319.902 53.4205 320.386 53.8068C320.871 54.1932 321.629 54.5152 322.659 54.7727L325.25 55.4091C326.811 55.7879 327.973 56.3674 328.739 57.1477C329.504 57.9205 329.886 58.9167 329.886 60.1364C329.886 61.1364 329.598 62.0303 329.023 62.8182C328.455 63.6061 327.659 64.2273 326.636 64.6818C325.614 65.1364 324.424 65.3636 323.068 65.3636C321.288 65.3636 319.814 64.9773 318.648 64.2045C317.481 63.4318 316.742 62.303 316.432 60.8182L318.977 60.1818C319.22 61.1212 319.678 61.8258 320.352 62.2955C321.034 62.7652 321.924 63 323.023 63C324.273 63 325.265 62.7348 326 62.2045C326.742 61.6667 327.114 61.0227 327.114 60.2727C327.114 59.6667 326.902 59.1591 326.477 58.75C326.053 58.3333 325.402 58.0227 324.523 57.8182L321.614 57.1364C320.015 56.7576 318.841 56.1705 318.091 55.375C317.348 54.572 316.977 53.5682 316.977 52.3636C316.977 51.3788 317.254 50.5076 317.807 49.75C318.367 48.9924 319.129 48.3977 320.091 47.9659C321.061 47.5341 322.159 47.3182 323.386 47.3182C325.114 47.3182 326.47 47.697 327.455 48.4545C328.447 49.2121 329.152 50.2121 329.568 51.4545ZM341.241 65.3636C339.56 65.3636 338.109 64.9924 336.889 64.25C335.677 63.5 334.741 62.4545 334.082 61.1136C333.431 59.7652 333.105 58.197 333.105 56.4091C333.105 54.6212 333.431 53.0455 334.082 51.6818C334.741 50.3106 335.658 49.2424 336.832 48.4773C338.014 47.7045 339.393 47.3182 340.969 47.3182C341.878 47.3182 342.776 47.4697 343.662 47.7727C344.548 48.0758 345.355 48.5682 346.082 49.25C346.81 49.9242 347.389 50.8182 347.821 51.9318C348.253 53.0455 348.469 54.4167 348.469 56.0455V57.1818H335.014V54.8636H345.741C345.741 53.8788 345.545 53 345.151 52.2273C344.764 51.4545 344.211 50.8447 343.491 50.3977C342.779 49.9508 341.938 49.7273 340.969 49.7273C339.901 49.7273 338.976 49.9924 338.196 50.5227C337.423 51.0455 336.829 51.7273 336.412 52.5682C335.995 53.4091 335.787 54.3106 335.787 55.2727V56.8182C335.787 58.1364 336.014 59.2538 336.469 60.1705C336.931 61.0795 337.571 61.7727 338.389 62.25C339.207 62.7197 340.158 62.9545 341.241 62.9545C341.946 62.9545 342.582 62.8561 343.151 62.6591C343.726 62.4545 344.223 62.1515 344.639 61.75C345.056 61.3409 345.378 60.8333 345.605 60.2273L348.196 60.9545C347.923 61.8333 347.465 62.6061 346.821 63.2727C346.177 63.9318 345.382 64.447 344.435 64.8182C343.488 65.1818 342.423 65.3636 341.241 65.3636Z" fill="black"/>
</svg>
