<svg width="317" height="107" viewBox="0 0 317 107" fill="none" xmlns="http://www.w3.org/2000/svg">
<rect width="317" height="107" fill="#F7F7F7"/>
<g clip-path="url(#clip0_8_97)">
<path d="M52.625 69.75H74.1875V74.0625H52.625V69.75Z" fill="black"/>
<path d="M52.625 56.8125H74.1875V61.125H52.625V56.8125Z" fill="black"/>
<path d="M100.062 48.1875H56.9375C55.7938 48.1875 54.6969 47.7331 53.8881 46.9244C53.0794 46.1156 52.625 45.0187 52.625 43.875V30.9375C52.625 29.7938 53.0794 28.6969 53.8881 27.8881C54.6969 27.0794 55.7938 26.625 56.9375 26.625H100.062C101.206 26.625 102.303 27.0794 103.112 27.8881C103.921 28.6969 104.375 29.7938 104.375 30.9375V43.875C104.375 45.0187 103.921 46.1156 103.112 46.9244C102.303 47.7331 101.206 48.1875 100.062 48.1875ZM56.9375 30.9375V43.875H100.062V30.9375H56.9375Z" fill="black"/>
<path d="M100.062 78.375H87.125C85.9813 78.375 84.8844 77.9206 84.0756 77.1119C83.2669 76.3031 82.8125 75.2062 82.8125 74.0625V61.125C82.8125 59.9813 83.2669 58.8844 84.0756 58.0756C84.8844 57.2669 85.9813 56.8125 87.125 56.8125H100.062C101.206 56.8125 102.303 57.2669 103.112 58.0756C103.921 58.8844 104.375 59.9813 104.375 61.125V74.0625C104.375 75.2062 103.921 76.3031 103.112 77.1119C102.303 77.9206 101.206 78.375 100.062 78.375ZM87.125 61.125V74.0625H100.062V61.125H87.125Z" fill="black"/>
</g>
<path d="M155.045 64L148.682 40.7273H151.545L156.409 59.6818H156.636L161.591 40.7273H164.773L169.727 59.6818H169.955L174.818 40.7273H177.682L171.318 64H168.409L163.273 45.4545H163.091L157.955 64H155.045ZM179.736 64V46.5455H182.327V49.1818H182.509C182.827 48.3182 183.402 47.6174 184.236 47.0795C185.069 46.5417 186.009 46.2727 187.054 46.2727C187.251 46.2727 187.497 46.2765 187.793 46.2841C188.088 46.2917 188.312 46.303 188.463 46.3182V49.0455C188.372 49.0227 188.164 48.9886 187.838 48.9432C187.52 48.8902 187.183 48.8636 186.827 48.8636C185.978 48.8636 185.221 49.0417 184.554 49.3977C183.895 49.7462 183.372 50.2311 182.986 50.8523C182.607 51.4659 182.418 52.1667 182.418 52.9545V64H179.736ZM191.642 64V46.5455H194.324V64H191.642ZM193.006 43.6364C192.483 43.6364 192.032 43.4583 191.653 43.1023C191.282 42.7462 191.097 42.3182 191.097 41.8182C191.097 41.3182 191.282 40.8902 191.653 40.5341C192.032 40.178 192.483 40 193.006 40C193.528 40 193.975 40.178 194.347 40.5341C194.725 40.8902 194.915 41.3182 194.915 41.8182C194.915 42.3182 194.725 42.7462 194.347 43.1023C193.975 43.4583 193.528 43.6364 193.006 43.6364ZM206.827 46.5455V48.8182H197.781V46.5455H206.827ZM200.418 42.3636H203.099V59C203.099 59.7576 203.209 60.3258 203.429 60.7045C203.656 61.0758 203.944 61.3258 204.293 61.4545C204.649 61.5758 205.024 61.6364 205.418 61.6364C205.713 61.6364 205.955 61.6212 206.145 61.5909C206.334 61.553 206.486 61.5227 206.599 61.5L207.145 63.9091C206.963 63.9773 206.709 64.0455 206.384 64.1136C206.058 64.1894 205.645 64.2273 205.145 64.2273C204.387 64.2273 203.645 64.0644 202.918 63.7386C202.198 63.4129 201.599 62.9167 201.122 62.25C200.652 61.5833 200.418 60.7424 200.418 59.7273V42.3636ZM210.861 64V46.5455H213.543V64H210.861ZM212.224 43.6364C211.702 43.6364 211.251 43.4583 210.872 43.1023C210.501 42.7462 210.315 42.3182 210.315 41.8182C210.315 41.3182 210.501 40.8902 210.872 40.5341C211.251 40.178 211.702 40 212.224 40C212.747 40 213.194 40.178 213.565 40.5341C213.944 40.8902 214.134 41.3182 214.134 41.8182C214.134 42.3182 213.944 42.7462 213.565 43.1023C213.194 43.4583 212.747 43.6364 212.224 43.6364ZM221.136 53.5V64H218.455V46.5455H221.045V49.2727H221.273C221.682 48.3864 222.303 47.6742 223.136 47.1364C223.97 46.5909 225.045 46.3182 226.364 46.3182C227.545 46.3182 228.58 46.5606 229.466 47.0455C230.352 47.5227 231.042 48.25 231.534 49.2273C232.027 50.197 232.273 51.4242 232.273 52.9091V64H229.591V53.0909C229.591 51.7197 229.235 50.6515 228.523 49.8864C227.811 49.1136 226.833 48.7273 225.591 48.7273C224.735 48.7273 223.97 48.9129 223.295 49.2841C222.629 49.6553 222.102 50.197 221.716 50.9091C221.33 51.6212 221.136 52.4848 221.136 53.5ZM244.219 70.9091C242.923 70.9091 241.81 70.7424 240.878 70.4091C239.946 70.0833 239.17 69.6515 238.548 69.1136C237.935 68.5833 237.446 68.0152 237.082 67.4091L239.219 65.9091C239.461 66.2273 239.768 66.5909 240.139 67C240.51 67.4167 241.018 67.7765 241.662 68.0795C242.313 68.3902 243.166 68.5455 244.219 68.5455C245.628 68.5455 246.791 68.2045 247.707 67.5227C248.624 66.8409 249.082 65.7727 249.082 64.3182V60.7727H248.855C248.658 61.0909 248.378 61.4848 248.014 61.9545C247.658 62.4167 247.143 62.8295 246.469 63.1932C245.802 63.5492 244.901 63.7273 243.764 63.7273C242.355 63.7273 241.09 63.3939 239.969 62.7273C238.855 62.0606 237.973 61.0909 237.321 59.8182C236.677 58.5455 236.355 57 236.355 55.1818C236.355 53.3939 236.67 51.8371 237.298 50.5114C237.927 49.178 238.802 48.1477 239.923 47.4205C241.045 46.6856 242.34 46.3182 243.81 46.3182C244.946 46.3182 245.848 46.5076 246.514 46.8864C247.188 47.2576 247.704 47.6818 248.06 48.1591C248.423 48.6288 248.704 49.0152 248.901 49.3182H249.173V46.5455H251.764V64.5C251.764 66 251.423 67.2197 250.741 68.1591C250.067 69.1061 249.158 69.7992 248.014 70.2386C246.878 70.6856 245.613 70.9091 244.219 70.9091ZM244.128 61.3182C245.204 61.3182 246.113 61.072 246.855 60.5795C247.598 60.0871 248.162 59.3788 248.548 58.4545C248.935 57.5303 249.128 56.4242 249.128 55.1364C249.128 53.8788 248.938 52.7689 248.56 51.8068C248.181 50.8447 247.62 50.0909 246.878 49.5455C246.135 49 245.219 48.7273 244.128 48.7273C242.991 48.7273 242.045 49.0152 241.287 49.5909C240.537 50.1667 239.973 50.9394 239.594 51.9091C239.223 52.8788 239.037 53.9545 239.037 55.1364C239.037 56.3485 239.226 57.4205 239.605 58.3523C239.991 59.2765 240.56 60.0038 241.31 60.5341C242.067 61.0568 243.007 61.3182 244.128 61.3182Z" fill="black"/>
<defs>
<clipPath id="clip0_8_97">
<rect width="69" height="69" fill="white" transform="translate(44 18)"/>
</clipPath>
</defs>
</svg>
